<svg width="147" height="41" viewBox="0 0 147 41" fill="none" xmlns="http://www.w3.org/2000/svg">
<rect x="0.5" y="0.5" width="146" height="40" rx="2.5" fill="white" stroke="#4267B2"/>
<g clip-path="url(#clip0)">
<path d="M36.1232 3H5.8752C4.83942 3.00053 3.99974 3.86544 4 4.93195V36.0696C4.00052 37.1359 4.84071 38.0003 5.87675 38H36.1232C37.1595 38.0003 37.9997 37.1356 38 36.0688C38 36.0686 38 36.0683 38 36.068V4.93035C37.9995 3.86411 37.1593 2.99973 36.1232 3Z" fill="#4267B2"/>
<path d="M27.4746 38V24.4648H31.9072L32.5713 19.167H27.4746V15.7928C27.4746 14.2625 27.8873 13.2197 30.0191 13.2197H32.7207V8.49411C32.2507 8.42976 30.638 8.28583 28.7615 8.28583C24.8435 8.28583 22.1621 10.7468 22.1621 15.2681V19.167H17.7461V24.4648H22.1621V38H27.4746Z" fill="white"/>
</g>
<path d="M51.0424 15.4322H47.9729C47.4356 15.4322 47 15.0597 47 14.5999V16.1677C47 16.6275 47.4356 17 47.9729 17H51.0424C51.5796 17 52.0153 16.6275 52.0153 16.1677V14.5999C52.0153 15.0597 51.5796 15.4322 51.0424 15.4322Z" fill="#324D85"/>
<path d="M58.0582 8.01334L58.3908 7.30166C59.0543 5.88185 59.0984 4.72626 59.0945 4.38269L58.0582 8.01334ZM58.0582 8.01334H58.8438M58.0582 8.01334H58.8438M58.8438 8.01334H61.2805C62.03 8.01334 62.4995 8.51809 62.4995 8.98374C62.4995 8.98297 62.499 9.00303 62.4935 9.05655C62.4885 9.10504 62.4809 9.1686 62.4705 9.24702C62.4498 9.40362 62.4194 9.60966 62.3813 9.85429C62.3053 10.343 62.2003 10.9761 62.0845 11.6558C61.8531 13.0148 61.5802 14.5528 61.4145 15.4798C61.3797 15.6741 61.1475 15.9108 60.7584 15.9108H52.4681L51.1821 11.3506L52.4374 8.4796L56.8971 4.62162L56.9322 4.59125M58.8438 8.01334L56.9322 4.59125M56.57 4.24348C56.9611 4.55493 56.9611 4.55488 56.9612 4.55483L56.9613 4.55472L56.9615 4.55444L56.9621 4.55368L56.9639 4.55135L56.9701 4.54357L56.9913 4.51619C57.0092 4.49297 57.0343 4.46002 57.0641 4.41958C57.1235 4.33916 57.2035 4.22681 57.2847 4.10087C57.3648 3.97654 57.4518 3.83005 57.521 3.68257C57.5835 3.54928 57.6601 3.3568 57.6638 3.15767L57.6639 3.15767V3.14837V3.04391C57.6639 2.82629 57.8846 2.53338 58.3105 2.50264C58.5332 2.5833 58.6912 2.69034 58.8108 2.86382C58.9518 3.06855 59.0808 3.4264 59.1054 4.08578L59.1054 4.14131C59.1054 4.1413 59.1052 4.1473 59.1043 4.16298L59.1006 4.22858C59.0992 4.25267 59.0977 4.27945 59.0965 4.30347C59.0956 4.32334 59.0942 4.3549 59.0945 4.38256L56.57 4.24348ZM56.57 4.24348L56.9611 4.55493M56.57 4.24348L56.9611 4.55493M56.9322 4.59125L56.9611 4.55493M56.9322 4.59125L56.9611 4.55493" stroke="#4267B2"/>
<path d="M51.0424 17H47.9729C47.4356 17 47 16.6275 47 16.1677V8.28621C47 7.8265 47.4356 7.45418 47.9729 7.45418H51.0424C51.5796 7.45418 52.0153 7.8265 52.0153 8.28621V16.1677C52.0153 16.6275 51.5796 17 51.0424 17Z" fill="#4267B2"/>
<path d="M73.1211 14.0801H77.1641V15H71.9902V6.46875H73.1211V14.0801ZM79.4551 15H78.3711V8.66016H79.4551V15ZM78.2832 6.97852C78.2832 6.80273 78.3359 6.6543 78.4414 6.5332C78.5508 6.41211 78.7109 6.35156 78.9219 6.35156C79.1328 6.35156 79.293 6.41211 79.4023 6.5332C79.5117 6.6543 79.5664 6.80273 79.5664 6.97852C79.5664 7.1543 79.5117 7.30078 79.4023 7.41797C79.293 7.53516 79.1328 7.59375 78.9219 7.59375C78.7109 7.59375 78.5508 7.53516 78.4414 7.41797C78.3359 7.30078 78.2832 7.1543 78.2832 6.97852ZM82.9648 12.0645L82.2852 12.7734V15H81.2012V6H82.2852V11.4434L82.8652 10.7461L84.8398 8.66016H86.1582L83.6914 11.3086L86.4453 15H85.1738L82.9648 12.0645ZM89.791 15.1172C88.9316 15.1172 88.2324 14.8359 87.6934 14.2734C87.1543 13.707 86.8848 12.9512 86.8848 12.0059V11.8066C86.8848 11.1777 87.0039 10.6172 87.2422 10.125C87.4844 9.62891 87.8203 9.24219 88.25 8.96484C88.6836 8.68359 89.1523 8.54297 89.6562 8.54297C90.4805 8.54297 91.1211 8.81445 91.5781 9.35742C92.0352 9.90039 92.2637 10.6777 92.2637 11.6895V12.1406H87.9688C87.9844 12.7656 88.166 13.2715 88.5137 13.6582C88.8652 14.041 89.3105 14.2324 89.8496 14.2324C90.2324 14.2324 90.5566 14.1543 90.8223 13.998C91.0879 13.8418 91.3203 13.6348 91.5195 13.377L92.1816 13.8926C91.6504 14.709 90.8535 15.1172 89.791 15.1172ZM89.6562 9.43359C89.2188 9.43359 88.8516 9.59375 88.5547 9.91406C88.2578 10.2305 88.0742 10.6758 88.0039 11.25H91.1797V11.168C91.1484 10.6172 91 10.1914 90.7344 9.89062C90.4688 9.58594 90.1094 9.43359 89.6562 9.43359ZM100.414 14.373C99.9922 14.8691 99.373 15.1172 98.5566 15.1172C97.8809 15.1172 97.3652 14.9219 97.0098 14.5312C96.6582 14.1367 96.4805 13.5547 96.4766 12.7852V8.66016H97.5605V12.7559C97.5605 13.7168 97.9512 14.1973 98.7324 14.1973C99.5605 14.1973 100.111 13.8887 100.385 13.2715V8.66016H101.469V15H100.438L100.414 14.373ZM106.812 13.3184C106.812 13.0254 106.701 12.7988 106.479 12.6387C106.26 12.4746 105.875 12.334 105.324 12.2168C104.777 12.0996 104.342 11.959 104.018 11.7949C103.697 11.6309 103.459 11.4355 103.303 11.209C103.15 10.9824 103.074 10.7129 103.074 10.4004C103.074 9.88086 103.293 9.44141 103.73 9.08203C104.172 8.72266 104.734 8.54297 105.418 8.54297C106.137 8.54297 106.719 8.72852 107.164 9.09961C107.613 9.4707 107.838 9.94531 107.838 10.5234H106.748C106.748 10.2266 106.621 9.9707 106.367 9.75586C106.117 9.54102 105.801 9.43359 105.418 9.43359C105.023 9.43359 104.715 9.51953 104.492 9.69141C104.27 9.86328 104.158 10.0879 104.158 10.3652C104.158 10.627 104.262 10.8242 104.469 10.957C104.676 11.0898 105.049 11.2168 105.588 11.3379C106.131 11.459 106.57 11.6035 106.906 11.7715C107.242 11.9395 107.49 12.1426 107.65 12.3809C107.814 12.6152 107.896 12.9023 107.896 13.2422C107.896 13.8086 107.67 14.2637 107.217 14.6074C106.764 14.9473 106.176 15.1172 105.453 15.1172C104.945 15.1172 104.496 15.0273 104.105 14.8477C103.715 14.668 103.408 14.418 103.186 14.0977C102.967 13.7734 102.857 13.4238 102.857 13.0488H103.941C103.961 13.4121 104.105 13.7012 104.375 13.916C104.648 14.127 105.008 14.2324 105.453 14.2324C105.863 14.2324 106.191 14.1504 106.438 13.9863C106.688 13.8184 106.812 13.5957 106.812 13.3184ZM111.998 11.7715C111.998 11.1504 112.119 10.5918 112.361 10.0957C112.607 9.59961 112.947 9.2168 113.381 8.94727C113.818 8.67773 114.316 8.54297 114.875 8.54297C115.738 8.54297 116.436 8.8418 116.967 9.43945C117.502 10.0371 117.77 10.832 117.77 11.8242V11.9004C117.77 12.5176 117.65 13.0723 117.412 13.5645C117.178 14.0527 116.84 14.4336 116.398 14.707C115.961 14.9805 115.457 15.1172 114.887 15.1172C114.027 15.1172 113.33 14.8184 112.795 14.2207C112.264 13.623 111.998 12.832 111.998 11.8477V11.7715ZM113.088 11.9004C113.088 12.6035 113.25 13.168 113.574 13.5938C113.902 14.0195 114.34 14.2324 114.887 14.2324C115.438 14.2324 115.875 14.0176 116.199 13.5879C116.523 13.1543 116.686 12.5488 116.686 11.7715C116.686 11.0762 116.52 10.5137 116.188 10.084C115.859 9.65039 115.422 9.43359 114.875 9.43359C114.34 9.43359 113.908 9.64648 113.58 10.0723C113.252 10.498 113.088 11.1074 113.088 11.9004ZM120.154 8.66016L120.189 9.45703C120.674 8.84766 121.307 8.54297 122.088 8.54297C123.428 8.54297 124.104 9.29883 124.115 10.8105V15H123.031V10.8047C123.027 10.3477 122.922 10.0098 122.715 9.79102C122.512 9.57227 122.193 9.46289 121.76 9.46289C121.408 9.46289 121.1 9.55664 120.834 9.74414C120.568 9.93164 120.361 10.1777 120.213 10.4824V15H119.129V8.66016H120.154Z" fill="#4267B2"/>
<path d="M55.8066 28.6084H49.6191V35H46.3965V19.3594H56.5801V21.9697H49.6191V26.0088H55.8066V28.6084ZM64.6152 35C64.472 34.7207 64.3682 34.3734 64.3037 33.958C63.5518 34.7959 62.5742 35.2148 61.3711 35.2148C60.2324 35.2148 59.2871 34.8854 58.5352 34.2266C57.7904 33.5677 57.418 32.737 57.418 31.7344C57.418 30.5026 57.8727 29.5573 58.7822 28.8984C59.6989 28.2396 61.0202 27.9066 62.7461 27.8994H64.1748V27.2334C64.1748 26.6963 64.0352 26.2666 63.7559 25.9443C63.4837 25.6221 63.0505 25.4609 62.4561 25.4609C61.9333 25.4609 61.5215 25.5863 61.2207 25.8369C60.9271 26.0876 60.7803 26.4313 60.7803 26.8682H57.6758C57.6758 26.195 57.8835 25.5719 58.2988 24.999C58.7142 24.4261 59.3014 23.9785 60.0605 23.6562C60.8197 23.3268 61.6719 23.1621 62.6172 23.1621C64.0495 23.1621 65.1846 23.5238 66.0225 24.2471C66.8675 24.9632 67.29 25.973 67.29 27.2764V32.3145C67.2972 33.4173 67.4512 34.2516 67.752 34.8174V35H64.6152ZM62.0479 32.8408C62.5062 32.8408 62.9287 32.7406 63.3154 32.54C63.7021 32.3324 63.9886 32.0566 64.1748 31.7129V29.7148H63.0146C61.4606 29.7148 60.6335 30.252 60.5332 31.3262L60.5225 31.5088C60.5225 31.8955 60.6585 32.2142 60.9307 32.4648C61.2028 32.7155 61.5752 32.8408 62.0479 32.8408ZM74.5088 32.7119C75.0817 32.7119 75.5472 32.5544 75.9053 32.2393C76.2633 31.9242 76.4495 31.5052 76.4639 30.9824H79.375C79.3678 31.7702 79.153 32.4935 78.7305 33.1523C78.3079 33.804 77.7279 34.3125 76.9902 34.6777C76.2598 35.0358 75.4505 35.2148 74.5625 35.2148C72.901 35.2148 71.5905 34.6885 70.6309 33.6357C69.6712 32.5758 69.1914 31.1149 69.1914 29.2529V29.0488C69.1914 27.2585 69.6676 25.8298 70.6201 24.7627C71.5726 23.6956 72.8796 23.1621 74.541 23.1621C75.9948 23.1621 77.1585 23.5775 78.0322 24.4082C78.9131 25.2318 79.3607 26.3311 79.375 27.7061H76.4639C76.4495 27.1045 76.2633 26.6175 75.9053 26.2451C75.5472 25.8656 75.0745 25.6758 74.4873 25.6758C73.764 25.6758 73.2161 25.9408 72.8438 26.4707C72.4785 26.9935 72.2959 27.8457 72.2959 29.0273V29.3496C72.2959 30.5456 72.4785 31.4049 72.8438 31.9277C73.209 32.4505 73.764 32.7119 74.5088 32.7119ZM86.4971 35.2148C84.7926 35.2148 83.4033 34.6921 82.3291 33.6465C81.262 32.6009 80.7285 31.208 80.7285 29.4678V29.167C80.7285 27.9997 80.9541 26.9577 81.4053 26.041C81.8564 25.1172 82.4938 24.4082 83.3174 23.9141C84.1481 23.4128 85.0934 23.1621 86.1533 23.1621C87.7432 23.1621 88.9928 23.6634 89.9023 24.666C90.819 25.6686 91.2773 27.0902 91.2773 28.9307V30.1982H83.876C83.9762 30.9574 84.277 31.5661 84.7783 32.0244C85.2868 32.4827 85.9277 32.7119 86.7012 32.7119C87.8971 32.7119 88.8317 32.2786 89.5049 31.4121L91.0303 33.1201C90.5648 33.779 89.9346 34.2946 89.1396 34.667C88.3447 35.0322 87.4639 35.2148 86.4971 35.2148ZM86.1426 25.6758C85.5267 25.6758 85.0254 25.8835 84.6387 26.2988C84.2591 26.7142 84.0156 27.3086 83.9082 28.082H88.2266V27.835C88.2122 27.1475 88.026 26.6175 87.668 26.2451C87.3099 25.8656 86.8014 25.6758 86.1426 25.6758ZM103.523 29.2959C103.523 31.1579 103.126 32.6117 102.331 33.6572C101.536 34.6956 100.426 35.2148 99.001 35.2148C97.7406 35.2148 96.7344 34.7314 95.9824 33.7646L95.8428 35H93.0498V18.5H96.1543V24.4189C96.8704 23.5811 97.8122 23.1621 98.9795 23.1621C100.397 23.1621 101.507 23.6849 102.31 24.7305C103.119 25.7689 103.523 27.2334 103.523 29.124V29.2959ZM100.419 29.0703C100.419 27.8958 100.233 27.04 99.8604 26.5029C99.488 25.9587 98.9329 25.6865 98.1953 25.6865C97.207 25.6865 96.5267 26.0911 96.1543 26.9004V31.4873C96.5339 32.3037 97.2214 32.7119 98.2168 32.7119C99.2194 32.7119 99.8783 32.2178 100.193 31.2295C100.344 30.7568 100.419 30.0371 100.419 29.0703ZM104.963 29.0811C104.963 27.9281 105.185 26.9004 105.629 25.998C106.073 25.0957 106.71 24.3975 107.541 23.9033C108.379 23.4092 109.349 23.1621 110.452 23.1621C112.021 23.1621 113.299 23.6419 114.287 24.6016C115.283 25.5612 115.838 26.8646 115.952 28.5117L115.974 29.3066C115.974 31.0898 115.476 32.5221 114.48 33.6035C113.485 34.6777 112.149 35.2148 110.474 35.2148C108.798 35.2148 107.459 34.6777 106.456 33.6035C105.461 32.5293 104.963 31.0684 104.963 29.2207V29.0811ZM108.067 29.3066C108.067 30.4095 108.275 31.2546 108.69 31.8418C109.106 32.4219 109.7 32.7119 110.474 32.7119C111.226 32.7119 111.813 32.4255 112.235 31.8525C112.658 31.2725 112.869 30.3486 112.869 29.0811C112.869 27.9997 112.658 27.1618 112.235 26.5674C111.813 25.973 111.218 25.6758 110.452 25.6758C109.693 25.6758 109.106 25.973 108.69 26.5674C108.275 27.1546 108.067 28.0677 108.067 29.3066ZM117.402 29.0811C117.402 27.9281 117.624 26.9004 118.068 25.998C118.512 25.0957 119.15 24.3975 119.98 23.9033C120.818 23.4092 121.789 23.1621 122.892 23.1621C124.46 23.1621 125.738 23.6419 126.727 24.6016C127.722 25.5612 128.277 26.8646 128.392 28.5117L128.413 29.3066C128.413 31.0898 127.915 32.5221 126.92 33.6035C125.924 34.6777 124.589 35.2148 122.913 35.2148C121.237 35.2148 119.898 34.6777 118.896 33.6035C117.9 32.5293 117.402 31.0684 117.402 29.2207V29.0811ZM120.507 29.3066C120.507 30.4095 120.715 31.2546 121.13 31.8418C121.545 32.4219 122.14 32.7119 122.913 32.7119C123.665 32.7119 124.252 32.4255 124.675 31.8525C125.097 31.2725 125.309 30.3486 125.309 29.0811C125.309 27.9997 125.097 27.1618 124.675 26.5674C124.252 25.973 123.658 25.6758 122.892 25.6758C122.132 25.6758 121.545 25.973 121.13 26.5674C120.715 27.1546 120.507 28.0677 120.507 29.3066ZM134.547 30.3379L133.43 31.4551V35H130.325V18.5H133.43V27.6416L134.031 26.8682L137.007 23.377H140.734L136.534 28.2217L141.1 35H137.533L134.547 30.3379Z" fill="#4267B2"/>
<defs>
<clipPath id="clip0">
<rect width="34" height="35" fill="white" transform="translate(4 3)"/>
</clipPath>
</defs>
</svg>
